<svg t="1591758521110" class="icon" viewBox="0 0 1024 1024" version="1.1" xmlns="http://www.w3.org/2000/svg" p-id="7442" width="200" height="200"><path d="M814.6 292.4c34.4 0 62.4-34.3 62.4-76.5v-86c0-42.4-30.2-76.5-64.8-76.5-34.4 0-60.1 34.3-60.1 76.5v86c0.1 42.3 28.1 76.5 62.5 76.5z m49.1 312.8H641c-26.4 0-47.8-21.4-47.8-47.8s21.4-47.8 47.8-47.8h222.9c26.4 0 47.8 21.4 47.8 47.8-0.1 26.4-21.6 47.8-48 47.8z m0 189.2H641c-26.4 0-47.8-21.4-47.8-47.8s21.4-47.8 47.8-47.8h222.9c26.4 0 47.8 21.4 47.8 47.8-0.1 26.5-21.6 47.8-48 47.8z m-349.9 24.5c0 53.2-101.9 65.2-197.6 65.2-95.6 0-198.8-12.1-198.8-65.2v-14.7c0-39 70.4-78.6 130.5-100.3 4.3-1.5 25-12.9 13.5-43.3-29.7-30.4-52.2-79.5-52.2-127.8 0-74.1 49-112.9 106.4-112.9 57.3 0 106.7 38.8 106.7 112.9 0 48.2-22.6 97.1-52.2 127.6h0.1c-11.4 34.4 6.9 42.6 9.7 43.5 63 20.8 133.8 60.1 133.8 100.3v14.7z m508-608.7c-2.8-70-67.7-65.4-67.7-65.4h-37.3v121.7s-0.9 53.5-52.7 53.6h-111c-46.4-1.7-43.9-52.2-43.9-52.2V144.8H315.4v123.1s2.4 50.4-50.4 52.2h-14.4c-26.8 0-53.6-0.1-80.4 0h-9.8c-51.9-0.1-52.7-53.6-52.7-53.6V144.8H70.4s-64.9-4.6-67.7 65.4c-0.4 2.8-0.5 4.6-0.5 4.6l0.1 676.6c0 69.5 70.6 70.2 70.6 70.2h878.5s70.6-0.6 70.6-70.2l0.1-676.6c0.2-0.1 0.1-1.8-0.3-4.6z m-811.4 82.2c34.4 0 62.4-34.3 62.4-76.5v-86c0-42.4-27.9-76.5-62.4-76.5S148 87.6 148 129.9v86c0 42.3 27.9 76.5 62.4 76.5z" p-id="7443"></path></svg>
