<svg t="1591758357888" class="icon" viewBox="0 0 1024 1024" version="1.1" xmlns="http://www.w3.org/2000/svg" p-id="1163" width="200" height="200"><path d="M686.634667 170.666667C802.261333 170.666667 896 274.56 896 402.688c0 188.032-247.296 373.034667-344.96 438.698667a69.717333 69.717333 0 0 1-78.08 0C375.296 775.68 128 590.72 128 402.688 128 274.56 221.696 170.666667 337.536 170.666667c66.218667 0 125.312 34.133333 163.712 87.338666a13.226667 13.226667 0 0 0 21.674667 0C561.322667 204.757333 620.245333 170.666667 686.634667 170.666667zM469.333333 469.333333H384a42.666667 42.666667 0 0 0 0 85.333334h85.333333v85.333333a42.666667 42.666667 0 0 0 85.333334 0v-85.333333h85.333333a42.666667 42.666667 0 0 0 0-85.333334h-85.333333V384a42.666667 42.666667 0 0 0-85.333334 0v85.333333z" p-id="1164"></path></svg>
