<?xml version="1.0" encoding="utf-8"?>
<!-- Generator: Adobe Illustrator 22.0.0, SVG Export Plug-In . SVG Version: 6.00 Build 0)  -->
<svg version="1.1" id="图层_1" xmlns="http://www.w3.org/2000/svg" xmlns:xlink="http://www.w3.org/1999/xlink" x="0px" y="0px"
	 viewBox="0 0 1000 1000" style="enable-background:new 0 0 1000 1000;" xml:space="preserve">
<style type="text/css">
	.st0{clip-path:url(#SVGID_2_);}
</style>
<g>
	<g>
		<defs>
			<rect id="SVGID_1_" x="97" y="114" width="805.9" height="772.8"/>
		</defs>
		<clipPath id="SVGID_2_">
			<use xlink:href="#SVGID_1_"  style="overflow:visible;"/>
		</clipPath>
		<path class="st0" d="M273.3,317.2c29.2,0,53-29.1,53-65.1V179c0-35.9-23.7-65.1-53-65.1c-29.2,0-53,29.1-53,65.1v73.1
			C220.4,288.1,244.1,317.2,273.3,317.2L273.3,317.2z M726,317.2c29.2,0,53-29.1,53-65.1V179c0-35.9-25.7-65.1-55-65.1
			c-29.2,0-51,29.1-50.9,65.1v73.1C673.2,288.1,696.8,317.2,726,317.2L726,317.2z M726,317.2"/>
	</g>
	<path d="M848.1,191.5h-30.4v106.3c0,24.8-20.3,45.1-45.1,45.1h-93.1c-24.9-0.1-45-20.2-45.1-45.1V191.5H366.7v106.3
		c0,24.8-20.3,45.1-45.1,45.1h-93.1c-24.8-0.1-45-20.2-45.1-45.1V191.5h-32.4c-29.8,0.1-54,24.3-54.1,54.1v586.2
		c0,29.7,24.3,54.1,54.1,54.1h697c29.8-0.1,54-24.3,54.1-54.1V245.5C902,215.7,877.9,191.6,848.1,191.5L848.1,191.5z M699.4,548
		L495.6,751.7c-8.4,8.5-19.9,13.3-31.9,13.3s-23.4-4.8-31.9-13.3L275.2,595c-17.6-17.6-17.6-46.1,0-63.7c17.6-17.6,46.1-17.6,63.7,0
		l124.8,124.9l171.9-171.9c17.6-17.6,46.1-17.6,63.7,0C717,501.9,717,530.4,699.4,548L699.4,548z M699.4,548"/>
</g>
</svg>
