<?xml version="1.0" encoding="utf-8"?>
<!-- Generator: Adobe Illustrator 22.0.0, SVG Export Plug-In . SVG Version: 6.00 Build 0)  -->
<svg version="1.1" id="图层_1" xmlns="http://www.w3.org/2000/svg" xmlns:xlink="http://www.w3.org/1999/xlink" x="0px" y="0px"
	 viewBox="0 0 1000 1000" xml:space="preserve">
<style type="text/css">
	.st0{clip-path:url(#SVGID_2_);}
</style>
<g>
	<g>
		<defs>
			<rect id="SVGID_1_" x="172" y="148" width="655.9" height="705.8"/>
		</defs>
		<clipPath id="SVGID_2_">
			<use xlink:href="#SVGID_1_"  style="overflow:visible;"/>
		</clipPath>
		<path class="st0" d="M727.7,148.1c54.9,0,99.4,44.5,99.4,99.4v506.1c0,54.9-44.5,99.4-99.4,99.4H271.2
			c-54.9,0-99.4-44.5-99.4-99.4V247.4c0-54.9,44.5-99.4,99.4-99.4H727.7z M748.7,442.3c-11-7.3-25.8-4.4-33.2,6.6L525.2,733.4
			l-0.3,0.5c-6.9,10.9-3.9,25.4,6.9,32.7c11,7.3,25.8,4.4,33.2-6.6l190.3-284.4l0.3-0.5C762.6,464.1,759.5,449.6,748.7,442.3
			L748.7,442.3z M522.4,475.6H300.7l-0.6,0c-13,0.3-23.4,10.9-23.4,23.9c0,13.1,10.5,23.7,23.5,23.9l0.4,0h221.7l0.6,0
			c13-0.3,23.4-10.9,23.4-23.9C546.4,486.4,535.7,475.6,522.4,475.6L522.4,475.6z M645.5,326.6H300.7l-0.6,0
			c-13,0.3-23.4,10.9-23.4,23.9c0,13.1,10.5,23.7,23.5,23.9l0.4,0h344.8l0.6,0c13-0.3,23.4-10.9,23.4-23.9
			C669.4,337.3,658.7,326.6,645.5,326.6L645.5,326.6z M645.5,326.6"/>
	</g>
</g>
</svg>
