<svg t="1591758641664" class="icon" viewBox="0 0 1024 1024" version="1.1" xmlns="http://www.w3.org/2000/svg" p-id="10786" width="200" height="200"><path d="M832 64a128 128 0 0 1 128 128v704a128 128 0 0 1-128 128H192a128 128 0 0 1-128-128V192a128 128 0 0 1 128-128v64a64 64 0 0 0 64 64h512a64 64 0 0 0 64-64V64z m-104.32 472.64H552.32V360.32a40.32 40.32 0 1 0-80.64 0v175.488H296.32a40.32 40.32 0 0 0 0 80.512h175.36v175.488a40.32 40.32 0 0 0 80.64 0V617.28h175.36a40.32 40.32 0 0 0 0-80.576zM288 0h448a32 32 0 0 1 32 32v64a32 32 0 0 1-32 32h-448a32 32 0 0 1-32-32v-64a32 32 0 0 1 32-32z" p-id="10787"></path></svg>
