<svg width="50" height="50" viewBox="0 0 50 50" xmlns="http://www.w3.org/2000/svg"><g id="2.1健康管理师" stroke="none" stroke-width="1" fill="none" fill-rule="evenodd"><g id="2IM/待处理消息" transform="translate(-1071 -583)" fill="#8C8C8C" fill-rule="nonzero"><g id="Group-5" transform="translate(968 84)"><g id="暂无" transform="translate(103 499)"><path d="M3.47 50A3.481 3.481 0 0 1 0 46.525v-22c0-.35.15-.675.4-.9l9.835-8.975c.224-.2.499-.325.823-.325h27.934c.349 0 .624.125.823.275l9.76 8.975c.225.225.425.575.425.9v22a3.481 3.481 0 0 1-3.47 3.475H3.47V50zm-1.947-3.475c0 1.05.898 1.925 1.997 1.925h43.01a1.908 1.908 0 0 0 1.922-1.925v-21.65H33l-.074.475c-.275 1.675-1.099 3.25-2.372 4.525-1.523 1.4-3.445 2.2-5.467 2.2a7.911 7.911 0 0 1-5.466-2.2c-1.298-1.175-2.097-2.775-2.372-4.525l-.075-.475H1.523v21.65zm1.123-22.9h15.127c.325 0 .574.325.574.625 0 3.6 3.07 6.65 6.715 6.65s6.715-3.05 6.715-6.65c0-.35.275-.625.574-.625H47.33L38.867 15.8H11.183l-8.537 7.825zM9.011 5.15c-1.397 0-2.57-1.175-2.57-2.575C6.44 1.175 7.613 0 9.01 0c1.398 0 2.572 1.175 2.572 2.575 0 1.4-1.174 2.575-2.572 2.575zm0-4.375c-.973 0-1.797.825-1.797 1.8 0 .975.824 1.8 1.797 1.8.974 0 1.798-.825 1.798-1.8 0-.975-.824-1.8-1.798-1.8zM35.996 10.9a1.727 1.727 0 0 1-1.722-1.725c0-.95.773-1.725 1.722-1.725s1.722.775 1.722 1.725c0 .95-.773 1.725-1.722 1.725zm0-2.625c-.5 0-.949.425-.949.95 0 .525.425.95.949.95.5 0 .949-.425.949-.95a.949.949 0 0 0-.949-.95zm-18.248.475c-.224 0-.399-.15-.399-.4V6.6c0-.225.15-.4.4-.4.249 0 .399.15.399.4v1.75c0 .25-.2.4-.4.4z" id="Shape"/><path d="M18.597 7.834h-1.76c-.227 0-.403-.156-.403-.417 0-.235.15-.417.402-.417h1.761c.227 0 .403.156.403.417 0 .26-.15.417-.403.417zM3.403 15C3.176 15 3 14.844 3 14.583v-3.57c0-.234.15-.417.403-.417.251 0 .402.156.402.417v3.57c-.025.26-.176.417-.402.417z" id="Shape"/><path d="M4.817 13.136H1.399C1.175 13.136 1 13 1 12.773c0-.205.15-.364.4-.364H4.84c.225 0 .4.136.4.364-.025.227-.175.363-.424.363zM45.6 15c-.225 0-.4-.136-.4-.364v-2.272c0-.205.15-.364.4-.364s.399.136.399.364v2.272c-.025.205-.175.364-.4.364z" id="Shape"/><path d="M46.622 13H44.26c-.213 0-.378-.146-.378-.39 0-.22.142-.39.378-.39h2.362c.213 0 .378.146.378.39-.024.22-.165.39-.378.39zm-5.244-5.39c-.213 0-.378-.147-.378-.39V3.39c0-.22.142-.39.378-.39.236 0 .378.146.378.39v3.854c0 .22-.165.366-.378.366z" id="Shape"/><path d="M43.601 6.8h-3.888c-.224 0-.398-.15-.398-.4 0-.225.15-.4.398-.4h3.888c.225 0 .399.15.399.4s-.174.4-.399.4zM12 35.4h8.872v2.3H12v-2.3zm17.844 0h9.57v2.3h-9.57v-2.3zm-8.698 5.975h8.698V44h-8.698v-2.625z" id="Shape"/></g></g></g></g></svg>