<svg xmlns="http://www.w3.org/2000/svg" viewBox="0 0 1000 1000"><path class="st0" d="M246.9 910.2V575.6h-.6V322.9h.4c.6-43.1 33.6-78.4 75.7-82.6h516.1v-.1c45.9-.6 82.9-38 82.9-84s-37-83.4-82.9-84V72H246.4c-92.9 0-168.2 75.3-168.2 168.2v504.7c.5 92.4 75.6 167.1 168.1 167.1h.6v-1.8z"></path><path class="st0" d="M921.2 574.4c-.7-92.5-75.9-167.2-168.5-167.2-1.9 0-3.8.1-5.7.1H414.6v167.1h296.1c23.5 0 42.6 19.1 42.6 42.6V702.3c0 23.5-19.1 42.6-42.6 42.6-.8 0-1.5-.1-2.3-.1v.1H414.6v166.7h-1.8v.4h340.6v-.4c92.2-.4 166.8-74.7 167.8-166.7h.4V574.4h-.4z"></path></svg>