<svg t="1591155144130" class="icon" viewBox="0 0 1024 1024" version="1.1" xmlns="http://www.w3.org/2000/svg" p-id="3384" width="200" height="200"><path d="M524.288 0c161.024 0 310.1184 71.424 408.9856 191.6928a32.9728 32.9728 0 0 1-5.2736 47.104 34.816 34.816 0 0 1-48.2304-5.12 458.8032 458.8032 0 0 0-355.5328-166.7072c-251.648 0-455.68 199.2704-455.68 445.0304 0 245.76 204.032 445.0304 455.68 445.0304 142.08 0 273.3056-63.8976 359.2192-171.1616a34.816 34.816 0 0 1 48.128-5.7856 32.9728 32.9728 0 0 1 5.888 47.0016C838.7584 950.4768 687.6672 1024 524.288 1024 234.6496 1024 0 794.7776 0 512S234.7008 0 524.288 0z m351.1296 366.592l138.5472 138.5984c13.4144 13.3632 13.6704 34.816 0.6144 47.9232l-135.3728 135.3216a33.8944 33.8944 0 0 1-47.9232-0.512 33.8944 33.8944 0 0 1-0.5632-47.9744l79.2064-79.2064H382.0544a33.8944 33.8944 0 0 1-34.304-33.4848c0-18.5344 15.36-33.536 34.304-33.536h525.7728l-79.7696-79.7696a33.8944 33.8944 0 0 1-0.5632-47.9232 33.8944 33.8944 0 0 1 47.9232 0.5632z" p-id="3385"></path></svg>
