<?xml version="1.0" standalone="no"?><!DOCTYPE svg PUBLIC "-//W3C//DTD SVG 1.1//EN" "http://www.w3.org/Graphics/SVG/1.1/DTD/svg11.dtd"><svg t="1591867896679" class="icon" viewBox="0 0 1024 1024" version="1.1" xmlns="http://www.w3.org/2000/svg" p-id="1512" xmlns:xlink="http://www.w3.org/1999/xlink" width="64" height="64"><defs><style type="text/css"></style></defs><path d="M805.51259733 981.6195008L218.48740267 981.6195008c-32.42161493 0-58.7023008-26.28068587-58.7023008-58.7023008L159.78510187 423.94654827c0-32.42161493 26.28068587-58.7023008 58.7023008-58.7023008l88.05345173 0 0-117.40460267c0-113.47183147 91.98731413-205.4591456 205.4591456-205.4591456s205.4591456 91.98731413 205.4591456 205.4591456l0 117.40460267 88.05345173 0c32.42161493 0 58.7023008 26.28068587 58.7023008 58.7023008l0 498.97065173C864.21489813 955.33881493 837.93312107 981.6195008 805.51259733 981.6195008zM482.64884907 682.71585387l0 122.79674346 58.7023008 0 0-122.79674346c34.12330453-12.13122667 58.7023008-44.37928853 58.7023008-82.66240214 0-48.63187627-39.42157547-88.05345173-88.05345174-88.05345173s-88.05345173 39.42157547-88.05345173 88.05345173C423.94654827 638.33656427 448.52445333 670.5846272 482.64884907 682.71585387zM629.40460267 247.8385536c0-64.8399552-52.56464747-117.40460267-117.40460267-117.40460267s-117.40460267 52.56464747-117.40460267 117.40460267l0 117.40460267 234.81029654 0L629.40569387 247.8385536z" p-id="1513"></path></svg>