<?xml version="1.0" standalone="no"?><!DOCTYPE svg PUBLIC "-//W3C//DTD SVG 1.1//EN" "http://www.w3.org/Graphics/SVG/1.1/DTD/svg11.dtd"><svg t="1613960255839" class="icon" viewBox="0 0 1024 1024" version="1.1" xmlns="http://www.w3.org/2000/svg" p-id="15449" width="200" height="200" xmlns:xlink="http://www.w3.org/1999/xlink"><defs><style type="text/css"></style></defs><path d="M835.6864 901.632H187.1872c-35.328 0-64.8192-23.552-64.8192-53.76V443.0848c0-30.1056 29.4912-53.76 64.8192-53.76h648.4992c35.328 0 64.8192 23.552 64.8192 53.76v403.5584c0 31.4368-27.9552 54.9888-64.8192 54.9888zM511.3856 524.288c-54.5792 0-97.28 36.6592-97.28 81.2032 0 24.8832 13.312 47.2064 35.328 61.5424 8.8064 5.2224 13.312 14.4384 13.312 23.552v61.5424c0 23.552 22.1184 41.8816 48.64 41.8816s48.64-18.3296 48.64-41.8816v-61.5424c0-9.216 5.9392-18.3296 13.312-23.552 20.5824-14.4384 35.328-36.6592 35.328-61.5424 0-44.544-42.7008-81.2032-97.28-81.2032z m0-319.6928c-94.3104 0-172.4416 54.9888-191.5904 129.7408-4.4032 18.3296-22.1184 32.768-44.2368 32.768h-8.8064c-27.9552 0-48.64-23.552-42.7008-47.2064 27.9552-112.64 145.92-196.5056 287.4368-196.5056s259.3792 83.8656 285.9008 195.1744c5.9392 24.8832-14.7456 47.2064-42.7008 47.2064h-8.8064c-20.5824 0-38.2976-13.1072-44.2368-32.768-17.7152-73.3184-95.8464-128.4096-190.2592-128.4096z m0 0" p-id="15450"></path></svg>