<?xml version="1.0" standalone="no"?><!DOCTYPE svg PUBLIC "-//W3C//DTD SVG 1.1//EN" "http://www.w3.org/Graphics/SVG/1.1/DTD/svg11.dtd"><svg t="1613961796597" class="icon" viewBox="0 0 1024 1024" version="1.1" xmlns="http://www.w3.org/2000/svg" p-id="1142" xmlns:xlink="http://www.w3.org/1999/xlink" width="200" height="200"><defs><style type="text/css"></style></defs><path d="M267.024 120.528q-7.84-6.86-13.229-16.168t-7.839-19.598 0-20.578 10.289-19.108q8.82-8.82 15.678-7.84t15.189 4.9 20.088 8.819 29.397 4.9q15.679 0 24.988-8.82t17.638-19.108T397.351 8.82 423.81 0t25.967 8.82 17.148 19.107 18.129 18.618 27.927 8.33q14.698 0 24.008-8.33t18.128-18.618T574.224 8.82 601.17 0t26.458 8.82 17.638 19.107 17.148 19.108 25.968 8.82q17.638 0 28.907-4.9t19.598-8.82 15.189-4.899 15.678 7.84q7.84 8.819 9.8 19.108t0 20.578-7.84 19.598-12.739 16.168q-7.84 6.86-24.008 23.518t-32.826 34.297q-19.598 20.578-41.156 44.095H365.014q-22.537-23.517-41.156-44.095-16.658-17.639-32.826-34.297t-24.008-23.518z m422.339 146.006q74.472 42.136 133.267 100.93 24.497 25.478 48.995 56.345t43.116 68.593 30.377 81.332 11.759 93.58q0 83.293-25.478 148.946t-79.862 111.71-138.167 70.552-200.39 24.498q-117.589 0-201.86-24.498T172.463 927.97 92.601 816.26 67.123 667.315q0-49.975 11.27-93.581t30.376-81.332 42.626-68.593 48.995-56.345q58.795-58.794 134.247-100.93h354.726z m45.075 311.61H610.97l78.393-104.85-36.257-27.438-79.372 105.83 35.277 26.458H458.105l37.237-27.438-79.373-106.81-37.236 27.438 79.372 106.81H334.637v44.095H512.98v89.172H334.637v45.075H512.98v89.171h43.116v-89.17h178.342V711.41H556.096v-89.172h178.342v-44.095z" p-id="1143"></path></svg>