<?xml version="1.0" standalone="no"?><!DOCTYPE svg PUBLIC "-//W3C//DTD SVG 1.1//EN" "http://www.w3.org/Graphics/SVG/1.1/DTD/svg11.dtd"><svg t="1613960241286" class="icon" viewBox="0 0 1024 1024" version="1.1" xmlns="http://www.w3.org/2000/svg" p-id="15264" xmlns:xlink="http://www.w3.org/1999/xlink" width="200" height="200"><defs><style type="text/css"></style></defs><path d="M743.0144 456.8064h92.672c35.7376 0 64.9216 28.9792 64.9216 64.9216v314.9824c0 35.7376-28.9792 64.9216-64.9216 64.9216h-92.672c-35.7376 0-64.9216-28.9792-64.9216-64.9216V521.728c0-35.9424 29.0816-64.9216 64.9216-64.9216z m-296.5504 0h92.672c35.7376 0 64.9216 28.9792 64.9216 64.9216v314.9824c0 35.7376-28.9792 64.9216-64.9216 64.9216H446.464c-35.7376 0-64.9216-28.9792-64.9216-64.9216V521.728c0.2048-35.9424 29.184-64.9216 64.9216-64.9216z m0-333.5168h389.12c35.7376 0 64.9216 28.9792 64.9216 64.9216v129.6384c0 35.7376-28.9792 64.9216-64.9216 64.9216H446.464c-35.7376 0-64.9216-28.9792-64.9216-64.9216V188.2112c0.2048-35.84 29.184-64.9216 64.9216-64.9216z m-259.2768 0H224.256c35.7376 0 64.9216 28.9792 64.9216 64.9216v648.4992c0 35.7376-28.9792 64.9216-64.9216 64.9216h-37.0688c-35.84-0.1024-64.9216-29.0816-64.9216-64.9216V188.2112c0-35.84 29.0816-64.9216 64.9216-64.9216z m0 0" p-id="15265"></path></svg>