<svg t="1591240218097" class="icon" viewBox="0 0 1024 1024" version="1.1" xmlns="http://www.w3.org/2000/svg" p-id="16105" width="200" height="200"><path d="M234.666667 277.333333a21.333333 21.333333 0 0 0-21.333334 21.333334v256a21.333333 21.333333 0 0 0 21.333334 21.333333h42.666666a21.333333 21.333333 0 0 0 21.333334-21.333333V277.333333zM789.333333 128H362.666667a21.333333 21.333333 0 0 0-21.333334 21.333333v405.333334a21.333333 21.333333 0 0 0 21.333334 21.333333h22.613333a21.333333 21.333333 0 0 1 20.053333 21.333333v42.666667a21.333333 21.333333 0 0 0 21.333334 21.333333h170.666666a21.333333 21.333333 0 0 0 21.333334-21.333333v-42.666667a21.333333 21.333333 0 0 1 20.053333-21.333333H789.333333a21.333333 21.333333 0 0 0 21.333334-21.333333V149.333333a21.333333 21.333333 0 0 0-21.333334-21.333333z m-106.666666 298.666667H469.333333a21.333333 21.333333 0 0 1-21.333333-21.333334 21.333333 21.333333 0 0 1 21.333333-21.333333h213.333334a21.333333 21.333333 0 0 1 21.333333 21.333333 21.333333 21.333333 0 0 1-21.333333 21.333334z m0-106.666667H469.333333a21.333333 21.333333 0 0 1-21.333333-21.333333 21.333333 21.333333 0 0 1 21.333333-21.333334h213.333334a21.333333 21.333333 0 0 1 21.333333 21.333334 21.333333 21.333333 0 0 1-21.333333 21.333333z" p-id="16106"></path><path d="M833.066667 618.666667H682.666667a21.333333 21.333333 0 0 0-21.333334 21.333333v19.2a45.013333 45.013333 0 0 1-44.8 44.8h-209.28A44.586667 44.586667 0 0 1 362.666667 659.413333V640a21.333333 21.333333 0 0 0-21.333334-21.333333H192a21.333333 21.333333 0 0 0-21.333333 21.333333v213.333333a21.333333 21.333333 0 0 0 20.053333 21.333334h642.56a21.333333 21.333333 0 0 0 20.053333-21.333334V640a21.333333 21.333333 0 0 0-20.266666-21.333333z" p-id="16107"></path></svg>
