<?xml version="1.0" standalone="no"?><!DOCTYPE svg PUBLIC "-//W3C//DTD SVG 1.1//EN" "http://www.w3.org/Graphics/SVG/1.1/DTD/svg11.dtd"><svg t="1608862639970" class="icon" viewBox="0 0 1024 1024" version="1.1" xmlns="http://www.w3.org/2000/svg" p-id="11112" width="26" height="26" xmlns:xlink="http://www.w3.org/1999/xlink"><defs><style type="text/css"></style></defs><path d="M424.96 59.392H51.712C23.04 59.392 0 82.944 0 111.104v312.32c0 28.672 23.04 51.712 51.712 51.712H424.96c28.672 0 51.712-23.04 51.712-51.712v-312.32c0-28.16-23.04-51.712-51.712-51.712zM972.288 59.392H599.04c-28.672 0-51.712 23.04-51.712 51.712v312.32c0 28.672 23.04 51.712 51.712 51.712h373.248c28.672 0 51.712-23.04 51.712-51.712v-312.32c0-28.16-23.04-51.712-51.712-51.712zM424.96 548.864H51.712c-28.672 0-51.712 23.04-51.712 51.712v312.32c0 28.672 23.04 51.712 51.712 51.712H424.96c28.672 0 51.712-23.04 51.712-51.712v-312.32c0-28.672-23.04-51.712-51.712-51.712zM972.288 548.864H599.04c-28.672 0-51.712 23.04-51.712 51.712v312.32c0 28.672 23.04 51.712 51.712 51.712h373.248c28.672 0 51.712-23.04 51.712-51.712v-312.32c0-28.672-23.04-51.712-51.712-51.712z" p-id="11113" fill="#0ab2c1"></path></svg>