<?xml version="1.0" standalone="no"?><!DOCTYPE svg PUBLIC "-//W3C//DTD SVG 1.1//EN" "http://www.w3.org/Graphics/SVG/1.1/DTD/svg11.dtd"><svg t="1613960297433" class="icon" viewBox="0 0 1024 1024" version="1.1" xmlns="http://www.w3.org/2000/svg" p-id="16229" xmlns:xlink="http://www.w3.org/1999/xlink" width="200" height="200"><defs><style type="text/css"></style></defs><path d="M631.3984 188.5184v2.56c-0.512-1.024-0.512-2.048 0-2.56-0.512-1.024 0-1.536 0-2.56v2.56zM451.3792 577.2288c0 35.84 26.8288 64.9216 60.0064 64.9216 33.1776 0 60.0064-29.0816 60.0064-64.9216s-26.8288-64.9216-60.0064-64.9216c-33.0752 0-60.0064 29.0816-60.0064 64.9216z m0 0" p-id="16230"></path><path d="M630.9888 642.1504c-9.1136 0-18.2272 4.7104-23.552 12.4928-21.6064 31.744-56.6272 51.9168-95.9488 51.9168-39.3216 0-73.9328-20.2752-95.9488-51.9168-5.7344-8.2944-14.4384-12.4928-23.552-12.4928h-239.616c-16.2816 0-29.7984 14.5408-29.7984 32.256v194.3552c0 17.7152 13.4144 32.256 29.7984 32.256h718.5408c16.2816 0 29.7984-14.5408 29.7984-32.256V674.4064c0-17.7152-13.4144-32.256-29.7984-32.256H630.9888z m-299.1104-486.4v421.4784H840.704V155.7504c0-17.7152-13.4144-32.256-29.7984-32.256H361.6768c-16.2816 0.1024-29.7984 14.6432-29.7984 32.256z m374.8864 307.712H467.7632c-14.848 0-28.7744-11.4688-30.72-27.5456-2.3552-19.7632 11.9808-36.864 29.2864-36.864h239.0016c14.848 0 28.7744 11.4688 30.72 27.5456 2.3552 19.6608-11.9808 36.864-29.2864 36.864z m0-146.0224H467.7632c-14.848 0-28.7744-11.4688-30.72-27.5456-2.3552-19.7632 11.9808-36.864 29.2864-36.864h239.0016c14.848 0 28.7744 11.4688 30.72 27.5456 2.3552 19.6608-11.9808 36.864-29.2864 36.864zM271.872 577.2288h-89.8048V220.7744c0-17.7152 13.4144-32.256 29.7984-32.256h60.0064v388.7104z m0 0" p-id="16231"></path></svg>