<?xml version="1.0" standalone="no"?><!DOCTYPE svg PUBLIC "-//W3C//DTD SVG 1.1//EN" "http://www.w3.org/Graphics/SVG/1.1/DTD/svg11.dtd"><svg t="1613960308856" class="icon" viewBox="0 0 1024 1024" version="1.1" xmlns="http://www.w3.org/2000/svg" p-id="16730" xmlns:xlink="http://www.w3.org/1999/xlink" width="200" height="200"><defs><style type="text/css"></style></defs><path d="M832 512.1024c0-45.4656 28.5696-84.0704 68.608-99.4304-9.4208-37.0688-24.064-72.4992-43.6224-105.3696-40.3456 18.0224-87.552 9.3184-118.784-21.9136s-39.936-78.5408-21.8112-118.8864c-32.8704-19.456-68.4032-34.2016-105.472-43.6224-15.7696 41.2672-55.296 68.5056-99.4304 68.608-44.1344-0.1024-83.6608-27.3408-99.4304-68.608-37.0688 9.4208-72.4992 24.064-105.3696 43.6224 18.1248 40.3456 9.4208 87.552-21.8112 118.8864-31.232 31.1296-78.5408 39.8336-118.8864 21.9136-19.5584 32.8704-34.304 68.3008-43.7248 105.3696 41.2672 15.7696 68.5056 55.296 68.608 99.4304 0 45.4656-28.5696 84.0704-68.608 99.4304 9.5232 37.5808 24.2688 72.9088 43.6224 105.3696 40.3456-18.0224 87.552-9.3184 118.784 21.9136s39.936 78.5408 21.8112 118.8864c32.8704 19.456 68.4032 34.2016 105.472 43.6224 15.7696-41.2672 55.296-68.5056 99.4304-68.608 45.4656 0 84.0704 28.5696 99.4304 68.608 37.0688-9.4208 72.4992-24.064 105.3696-43.6224-18.1248-40.3456-9.4208-87.552 21.8112-118.8864 31.232-31.1296 78.5408-39.8336 118.8864-21.9136 19.5584-32.8704 34.304-68.3008 43.6224-105.3696-41.1648-15.6672-68.5056-55.296-68.5056-99.4304z m-320.512 106.9056c-38.1952 0-73.4208-20.3776-92.5696-53.4528-19.0464-33.0752-19.0464-73.8304 0-106.9056 19.1488-33.0752 54.3744-53.4528 92.5696-53.4528 59.0848 0 106.9056 47.9232 106.8032 106.9056 0.1024 59.0848-47.8208 106.9056-106.8032 106.9056z m0 0" p-id="16731"></path></svg>