<?xml version="1.0" standalone="no"?><!DOCTYPE svg PUBLIC "-//W3C//DTD SVG 1.1//EN" "http://www.w3.org/Graphics/SVG/1.1/DTD/svg11.dtd"><svg t="1613960305448" class="icon" viewBox="0 0 1024 1024" version="1.1" xmlns="http://www.w3.org/2000/svg" p-id="16605" xmlns:xlink="http://www.w3.org/1999/xlink" width="200" height="200"><defs><style type="text/css"></style></defs><path d="M774.656 154.2144c58.1632 0 105.3696 45.8752 105.3696 102.4v563.2c0 56.5248-47.2064 102.4-105.3696 102.4H248.1152c-58.1632 0-105.3696-45.8752-105.3696-102.4v-563.2c0-56.5248 47.2064-102.4 105.3696-102.4v51.2c0 28.2624 23.552 51.2 52.6336 51.2h421.2736c29.0816 0 52.6336-22.9376 52.6336-51.2v-51.2z m-85.8112 378.0608H544.5632V391.2704c0-11.5712-6.3488-22.2208-16.5888-27.9552-10.24-5.7344-22.9376-5.7344-33.1776 0s-16.5888 16.384-16.5888 27.9552v140.3904H333.9264c-17.6128 0.9216-31.3344 15.0528-31.3344 32.256 0 17.1008 13.7216 31.232 31.3344 32.1536H478.208v140.3904c0 17.8176 14.848 32.256 33.1776 32.256s33.1776-14.4384 33.1776-32.256V596.8896h144.2816c17.8176-0.7168 31.8464-14.9504 31.8464-32.256s-14.0288-31.5392-31.8464-32.3584zM327.0656 103.0144h368.64c14.5408 0 26.3168 11.4688 26.3168 25.6v51.2c0 14.1312-11.776 25.6-26.3168 25.6h-368.64c-14.5408 0-26.3168-11.4688-26.3168-25.6v-51.2c0-14.1312 11.776-25.6 26.3168-25.6z m0 0" p-id="16606"></path></svg>