<?xml version="1.0" standalone="no"?><!DOCTYPE svg PUBLIC "-//W3C//DTD SVG 1.1//EN" "http://www.w3.org/Graphics/SVG/1.1/DTD/svg11.dtd"><svg t="1591780947181" class="icon" viewBox="0 0 1024 1024" version="1.1" xmlns="http://www.w3.org/2000/svg" p-id="18403" xmlns:xlink="http://www.w3.org/1999/xlink" width="200" height="200"><defs><style type="text/css"></style></defs><path d="M169.718519 505.362963c-11.662222 0-23.324444-4.93037-31.573334-14.411852-15.075556-17.445926-13.179259-43.804444 4.266667-58.88l342.281481-295.822222c17.445926-15.075556 43.804444-13.179259 58.88 4.266667 15.075556 17.445926 13.179259 43.804444-4.266666 58.88l-342.281482 295.822222c-7.86963 6.826667-17.635556 10.145185-27.306666 10.145185z" p-id="18404"></path><path d="M854.281481 505.362963c-9.671111 0-19.342222-3.318519-27.306666-10.145185l-342.281482-295.822222c-17.445926-15.075556-19.342222-41.434074-4.266666-58.88 15.075556-17.445926 41.434074-19.342222 58.88-4.266667l342.281481 295.822222c17.445926 15.075556 19.342222 41.434074 4.266667 58.88-8.248889 9.481481-19.911111 14.411852-31.573334 14.411852zM493.700741 283.685926L208.592593 523.377778v342.281481c0 15.739259 12.705185 28.444444 28.444444 28.444445h181.57037V680.77037h186.690371v213.333334H786.962963c15.739259 0 28.444444-12.705185 28.444444-28.444445V523.377778L530.299259 283.685926c-10.619259-8.912593-25.979259-8.912593-36.598518 0z" p-id="18405"></path></svg>