<svg t="1591240725039" class="icon" viewBox="0 0 1024 1024" version="1.1" xmlns="http://www.w3.org/2000/svg" p-id="17643" width="200" height="200"><path d="M718.311619 877.714286s-254.537143-196.071619-124.830476-260.144762c74.849524-36.985905 123.538286 10.313143 123.538286 10.313143s48.761905-47.299048 123.562666-10.337524C970.361905 681.691429 718.311619 877.714286 718.311619 877.714286z m-147.017143-297.593905c-73.386667 18.651429-73.337905 53.248-73.386666 115.614476 0 54.954667 80.384 148.48 118.637714 181.979429H146.285714a319.804952 319.804952 0 0 1 213.23581-301.592381c-72.265143-38.326857-122.051048-113.590857-122.051048-201.264762C237.470476 248.612571 339.529143 146.285714 465.432381 146.285714s227.961905 102.326857 227.961905 228.571429c0 87.673905-49.761524 162.937905-122.075429 201.289143 8.338286 2.925714-8.045714 0.341333 0 3.974095z" p-id="17644"></path></svg>
