<?xml version="1.0" standalone="no"?><!DOCTYPE svg PUBLIC "-//W3C//DTD SVG 1.1//EN" "http://www.w3.org/Graphics/SVG/1.1/DTD/svg11.dtd"><svg t="1613960300286" class="icon" viewBox="0 0 1024 1024" version="1.1" xmlns="http://www.w3.org/2000/svg" p-id="16355" xmlns:xlink="http://www.w3.org/1999/xlink" width="200" height="200"><defs><style type="text/css"></style></defs><path d="M769.8432 922.2144H252.5184c-46.7968 0-120.2176-57.0368-120.2176-116.4288v-478.208c0-49.9712 52.8384-116.4288 109.2608-116.4288h63.3856v107.4176h411.0336V211.1488h57.2416c56.4224 0 116.8384 50.5856 116.8384 116.8384v481.3824c0 68.7104-63.6928 112.8448-120.2176 112.8448z m-29.5936-460.6976c0-7.7824-6.5536-14.2336-14.5408-14.2336H298.0864c-7.9872 0-14.5408 6.4512-14.5408 14.2336v15.4624c0 7.7824 6.5536 14.1312 14.5408 14.1312h427.7248c7.9872 0 14.5408-6.2464 14.5408-14.1312v-15.4624z m0 129.7408c0-7.7824-6.5536-14.1312-14.5408-14.1312H298.0864c-7.9872 0-14.5408 6.3488-14.5408 14.1312v15.4624c0 7.8848 6.5536 14.2336 14.5408 14.2336h427.7248c7.9872 0 14.5408-6.3488 14.5408-14.2336v-15.4624z m0 129.1264c0-7.7824-6.5536-14.1312-14.5408-14.1312H298.0864c-7.9872 0-14.5408 6.3488-14.5408 14.1312v15.4624c0 7.7824 6.5536 14.0288 14.5408 14.0288h427.7248c7.9872 0 14.5408-6.2464 14.5408-14.0288v-15.4624z m-370.2784-445.44V159.4368h53.4528c0-31.1296 26.112-56.4224 58.2656-56.4224h58.2656c32.1536 0 58.2656 25.2928 58.2656 56.4224h53.4528v115.5072H369.9712z m140.9024-130.3552c-19.3536 0-34.9184 15.2576-34.9184 33.8944 0 18.6368 15.5648 33.792 34.9184 33.792 19.2512 0 34.9184-15.1552 34.9184-33.792s-15.6672-33.8944-34.9184-33.8944z m0 0" p-id="16356"></path></svg>