<svg t="1591241074307" class="icon" viewBox="0 0 1024 1024" version="1.1" xmlns="http://www.w3.org/2000/svg" p-id="26709" width="200" height="200"><path d="M284.611765 567.717647H124.988235c-18.070588 0-33.129412 15.058824-33.129411 33.129412v328.282353c0 18.070588 15.058824 33.129412 33.129411 33.129412h158.117647c18.070588 0 33.129412-15.058824 33.129412-33.129412V600.847059c1.505882-18.070588-13.552941-33.129412-31.623529-33.129412zM591.811765 61.741176H432.188235c-18.070588 0-33.129412 15.058824-33.129411 33.129412v834.258824c0 18.070588 15.058824 33.129412 33.129411 33.129412h158.117647c18.070588 0 33.129412-15.058824 33.129412-33.129412V94.870588c1.505882-18.070588-13.552941-33.129412-31.623529-33.129412zM899.011765 343.341176H739.388235c-18.070588 0-33.129412 15.058824-33.129411 33.129412v552.658824c0 18.070588 15.058824 33.129412 33.129411 33.129412h158.117647c18.070588 0 33.129412-15.058824 33.129412-33.129412V376.470588c1.505882-18.070588-13.552941-33.129412-31.623529-33.129412z" p-id="26710"></path></svg>
