<?xml version="1.0" standalone="no"?><!DOCTYPE svg PUBLIC "-//W3C//DTD SVG 1.1//EN" "http://www.w3.org/Graphics/SVG/1.1/DTD/svg11.dtd"><svg t="1613960294172" class="icon" viewBox="0 0 1024 1024" version="1.1" xmlns="http://www.w3.org/2000/svg" p-id="16104" xmlns:xlink="http://www.w3.org/1999/xlink" width="200" height="200"><defs><style type="text/css"></style></defs><path d="M792.3712 206.1312h21.6064c47.7184 0 86.4256 36.5568 86.4256 81.7152V819.2c0 45.1584-38.7072 81.7152-86.4256 81.7152H209.1008c-47.7184 0-86.4256-36.5568-86.4256-81.7152V287.9488c0-45.1584 38.7072-81.7152 86.4256-81.7152h43.2128v40.8576c0 45.1584 38.7072 81.7152 86.4256 81.7152 47.7184 0 86.4256-36.5568 86.4256-81.7152v-40.8576h194.4576v40.8576c0 45.1584 38.7072 81.7152 86.4256 81.7152 47.7184 0 86.4256-36.5568 86.4256-81.7152v-40.96zM267.776 450.4576c-22.6304 0-40.8576 17.3056-40.8576 38.6048 0 21.2992 18.3296 38.6048 40.8576 38.6048h479.4368c22.6304 0 40.8576-17.3056 40.8576-38.6048 0-21.2992-18.3296-38.6048-40.8576-38.6048H267.776z m0 220.2624c-22.6304 0-40.8576 17.3056-40.8576 38.6048s18.3296 38.6048 40.8576 38.6048h479.4368c22.6304 0 40.8576-17.3056 40.8576-38.6048 0-21.2992-18.3296-38.6048-40.8576-38.6048H267.776z m70.7584-546.816c23.9616 0 43.4176 18.2272 43.4176 40.8576v81.6128c0 22.528-19.456 40.8576-43.4176 40.8576s-43.4176-18.2272-43.4176-40.8576v-81.6128c0-22.6304 19.3536-40.8576 43.4176-40.8576z m367.4112 0c23.9616 0 43.4176 18.2272 43.4176 40.8576v81.6128c0 22.528-19.456 40.8576-43.4176 40.8576S662.528 269.0048 662.528 246.3744v-81.6128c0-22.6304 19.456-40.8576 43.4176-40.8576z m0 0" p-id="16105"></path></svg>