<?xml version="1.0" standalone="no"?><!DOCTYPE svg PUBLIC "-//W3C//DTD SVG 1.1//EN" "http://www.w3.org/Graphics/SVG/1.1/DTD/svg11.dtd"><svg t="1613960290668" class="icon" viewBox="0 0 1024 1024" version="1.1" xmlns="http://www.w3.org/2000/svg" p-id="15979" xmlns:xlink="http://www.w3.org/1999/xlink" width="200" height="200"><defs><style type="text/css"></style></defs><path d="M730.7264 900.3008S464.2816 699.904 598.016 624.3328c83.1488-47.0016 132.096 32.1536 132.096 32.1536s51.2-77.5168 130.56-32.1536c133.5296 76.1856-129.9456 275.968-129.9456 275.968zM574.464 584.4992c-68.608 12.5952-89.8048 57.2416-78.0288 122.6752 8.704 58.0608 85.4016 157.4912 126.0544 193.1264h-499.712c0-143.872 90.8288-272.0768 226.6112-320-76.8-40.6528-129.6384-120.5248-129.6384-213.6064 0-133.9392 108.4416-242.4832 242.2784-242.4832s242.2784 108.544 242.2784 242.4832c0 92.9792-52.8384 172.8512-129.7408 213.6064 8.8064 3.072 2.56 3.6864-0.1024 4.1984z m0 0" p-id="15980"></path></svg>