<?xml version="1.0" standalone="no"?><!DOCTYPE svg PUBLIC "-//W3C//DTD SVG 1.1//EN" "http://www.w3.org/Graphics/SVG/1.1/DTD/svg11.dtd"><svg t="1613960279914" class="icon" viewBox="0 0 1024 1024" version="1.1" xmlns="http://www.w3.org/2000/svg" p-id="15729" xmlns:xlink="http://www.w3.org/1999/xlink" width="200" height="200"><defs><style type="text/css"></style></defs><path d="M291.6352 901.12h-135.168c-18.6368 0-33.792-14.848-33.792-33.0752V587.1616c0-18.2272 15.2576-33.0752 33.792-33.0752h135.2704c18.6368 0 33.792 14.848 33.792 33.0752v280.8832c0 18.1248-15.2576 33.0752-33.8944 33.0752z m287.4368 0H443.8016c-18.6368 0-33.792-14.848-33.792-33.0752V157.4912c0-18.2272 15.2576-33.0752 33.792-33.0752h135.2704c18.6368 0 33.792 14.848 33.792 33.0752v710.5536c0 18.1248-15.2576 33.0752-33.792 33.0752z m287.3344 0H731.136c-18.6368 0-33.792-14.848-33.792-33.0752V421.888c0-18.2272 15.2576-33.0752 33.792-33.0752h135.2704c18.6368 0 33.792 14.848 33.792 33.0752v446.1568c0 18.1248-15.2576 33.0752-33.792 33.0752z m0 0" p-id="15730"></path></svg>