<?xml version="1.0" standalone="no"?><!DOCTYPE svg PUBLIC "-//W3C//DTD SVG 1.1//EN" "http://www.w3.org/Graphics/SVG/1.1/DTD/svg11.dtd"><svg t="1613960273483" class="icon" viewBox="0 0 1024 1024" version="1.1" xmlns="http://www.w3.org/2000/svg" p-id="15604" xmlns:xlink="http://www.w3.org/1999/xlink" width="200" height="200"><defs><style type="text/css"></style></defs><path d="M855.04 845.7216V405.2992c-0.2048-17.7152-7.5776-34.5088-20.2752-46.6944a65.881088 65.881088 0 0 0-47.5136-18.3296h-96.768V190.464c0.512-18.2272-6.7584-35.84-19.8656-48.5376-13.1072-12.288-30.4128-19.0464-48.4352-18.944H229.1712c-18.0224-0.2048-35.328 6.5536-48.4352 18.944-13.1072 12.5952-19.968 30.3104-18.944 48.5376v656.2816h-10.6496c-15.36-0.3072-28.2624 11.776-29.0816 27.136 0.3072 7.168 3.4816 14.0288 8.704 18.944 5.4272 5.3248 12.6976 8.2944 20.3776 8.2944h716.9024c10.9568 1.4336 21.8112-3.584 27.7504-13.0048 5.9392-9.4208 5.9392-21.4016 0-30.72-5.9392-9.4208-16.7936-14.4384-27.7504-13.0048l-13.0048 1.3312zM327.8848 393.216h207.1552c21.7088 0 39.424 17.5104 39.7312 39.3216 0 10.5472-4.1984 20.6848-11.6736 28.16-7.4752 7.4752-17.5104 11.6736-28.0576 11.6736H328.3968c-15.0528-0.1024-28.8768-8.4992-35.84-21.8112-6.7584-11.8784-6.7584-26.4192 0-38.2976 7.5776-12.288 20.992-19.5584 35.328-19.0464z m207.1552 328.2944H328.3968c-15.1552 1.6384-29.9008-5.4272-37.9904-18.432-8.0896-12.9024-8.0896-29.3888 0-42.2912 8.0896-12.9024 22.8352-20.0704 37.9904-18.432H535.552c14.5408-0.4096 28.0576 7.0656 35.4304 19.5584 7.3728 12.4928 7.2704 28.0576-0.1024 40.5504-7.7824 12.288-21.4016 19.456-35.84 19.0464z m0 0" p-id="15605"></path></svg>