<?xml version="1.0" standalone="no"?><!DOCTYPE svg PUBLIC "-//W3C//DTD SVG 1.1//EN" "http://www.w3.org/Graphics/SVG/1.1/DTD/svg11.dtd"><svg t="1613960284217" class="icon" viewBox="0 0 1024 1024" version="1.1" xmlns="http://www.w3.org/2000/svg" p-id="15854" xmlns:xlink="http://www.w3.org/1999/xlink" width="200" height="200"><defs><style type="text/css"></style></defs><path d="M210.8416 260.8128h593.5104c13.6192 0 24.576-10.9568 24.576-24.576V147.456c0-13.6192-10.9568-24.576-24.576-24.576H210.8416c-13.6192 0-24.576 10.9568-24.576 24.576v88.7808c0 13.5168 10.9568 24.576 24.576 24.576zM828.928 349.4912c0-21.8112-18.944-39.424-42.2912-39.424h-558.08c-23.3472 0-42.2912 17.6128-42.2912 39.424l-63.3856 198.656v313.5488c0 21.8112 18.944 39.424 42.2912 39.424h693.76c23.3472 0 42.2912-17.6128 42.2912-39.424V534.9376l-72.2944-185.4464z m-87.3472 256.1024c0 24.9856-20.2752 45.2608-45.2608 45.2608H557.2608v138.9568c0 24.9856-20.2752 45.2608-45.2608 45.2608-24.9856 0-45.2608-20.2752-45.2608-45.2608V650.8544H327.68c-24.9856 0-45.2608-20.2752-45.2608-45.2608 0-24.9856 20.2752-45.2608 45.2608-45.2608h138.9568V421.2736c0-24.9856 20.2752-45.2608 45.2608-45.2608 24.9856 0 45.2608 20.2752 45.2608 45.2608v138.9568H696.32c24.9856 0 45.2608 20.3776 45.2608 45.3632z" p-id="15855"></path></svg>