<?xml version="1.0" standalone="no"?><!DOCTYPE svg PUBLIC "-//W3C//DTD SVG 1.1//EN" "http://www.w3.org/Graphics/SVG/1.1/DTD/svg11.dtd"><svg t="1613959898761" class="icon" viewBox="0 0 1024 1024" version="1.1" xmlns="http://www.w3.org/2000/svg" p-id="15014" xmlns:xlink="http://www.w3.org/1999/xlink" width="200" height="200"><defs><style type="text/css"></style></defs><path d="M586.4448 124.3136H171.8272c-25.9072 0-49.152 20.7872-49.152 49.4592v677.6832c0 28.672 20.7872 49.4592 49.152 49.4592h414.6176c25.9072 0 49.152-23.4496 49.152-49.4592V173.7728c0.1024-28.672-23.2448-49.4592-49.152-49.4592zM350.72 788.992c0 7.8848-7.7824 15.6672-15.5648 15.6672h-98.5088c-7.7824 0-15.5648-7.8848-15.5648-15.6672v-101.5808c0-7.8848 7.7824-15.6672 15.5648-15.6672h98.5088c7.7824 0 15.5648 7.8848 15.5648 15.6672v101.5808z m0-182.4768c0 7.8848-7.7824 15.6672-15.5648 15.6672h-98.5088c-7.7824 0-15.5648-7.8848-15.5648-15.6672v-101.5808c0-7.8848 7.7824-15.6672 15.5648-15.6672h98.5088c7.7824 0 15.5648 7.8848 15.5648 15.6672v101.5808z m25.9072-203.3664c-13.0048 0-25.9072-10.3424-25.9072-23.4496v-49.4592h-49.152c-13.0048 0-23.2448-10.3424-23.2448-26.112 0-13.0048 10.3424-26.112 23.2448-26.112h49.152v-46.8992c0-13.0048 10.3424-23.4496 25.9072-23.4496 13.0048 0 25.9072 10.3424 25.9072 23.4496V280.576h49.152c12.9024 0 23.2448 10.3424 23.2448 26.112 0 13.0048-10.3424 26.112-23.2448 26.112h-49.152v49.4592c0 10.4448-13.0048 20.8896-25.9072 20.8896z m152.8832 385.8432c0 7.8848-7.7824 15.6672-15.5648 15.6672h-98.5088c-7.7824 0-15.5648-7.8848-15.5648-15.6672v-101.5808c0-7.8848 7.7824-15.6672 15.5648-15.6672h98.5088c7.7824 0 15.5648 7.8848 15.5648 15.6672v101.5808z m0-182.4768c0 7.8848-7.7824 15.6672-15.5648 15.6672h-98.5088c-7.7824 0-15.5648-7.8848-15.5648-15.6672v-101.5808c0-7.8848 7.7824-15.6672 15.5648-15.6672h98.5088c7.7824 0 15.5648 7.8848 15.5648 15.6672v101.5808z m318.6688-93.9008H659.0464v388.3008h189.1328c28.5696 0 51.8144-23.4496 51.8144-49.4592V562.0736c-2.56-26.0096-25.9072-49.4592-51.8144-49.4592z m0 0" p-id="15015"></path></svg>