<?xml version="1.0" standalone="no"?><!DOCTYPE svg PUBLIC "-//W3C//DTD SVG 1.1//EN" "http://www.w3.org/Graphics/SVG/1.1/DTD/svg11.dtd"><svg t="1591867867948" class="icon" viewBox="0 0 1024 1024" version="1.1" xmlns="http://www.w3.org/2000/svg" p-id="1795" xmlns:xlink="http://www.w3.org/1999/xlink" width="64" height="64"><defs><style type="text/css"></style></defs><path d="M913.81511885 897.71352823l2.95713368-510.39478829a77.43189375 77.43189375 0 0 0-78.87831766-75.7604707h-111.40678477v-173.57087022a74.31404678 74.31404678 0 0 0-23.07849697-53.96768438A80.32474161 80.32474161 0 0 0 647.60883242 62.00192832H186.16745849a80.32474161 80.32474161 0 0 0-55.60696406 22.01778633 74.57118926 74.57118926 0 0 0-21.95350136 53.74268438V898.99923799h-12.72853038A33.20346445 33.20346445 0 0 0 62.03214248 930.49913691c0.32142744 8.35711612 3.85713018 16.2642331 9.89996836 22.01778634 6.42855059 6.13926562 15.04280918 9.54639756 23.94635186 9.48211259h833.20446445C947.2435833 961.99903584 962.02925 947.21336914 962.02925 928.95628467c0-18.25708447-14.7856667-33.04275117-32.94632285-33.04275118L913.81511885 897.71352823zM335.37412109 432.47930908h172.92801622c18.19279864 0 32.94632285 14.7856667 32.94632197 33.04275118 0 18.25708447-14.75352422 33.04275117-32.94632198 33.04275117H335.56697773a34.07131934 34.07131934 0 0 1-29.66776171-18.06422784 31.33918477 31.33918477 0 0 1 0-31.94989716c6.33212227-10.15710996 17.48565791-16.2642331 29.4427626-16.07137735z m172.92801622 303.2990253H335.56697773c-18.22494112 0-32.97846533-14.7856667-32.97846533-33.04275118 0-18.22494112 14.7856667-33.01060781 32.97846533-33.01060781h172.92801622c12.02138965-0.28928496 23.30349609 5.81783818 29.63561835 16.07137646 6.52497891 10.38210908 6.42855059 23.62492442-0.19285664 33.91060518a34.03917598 34.03917598 0 0 1-29.66776172 16.07137735z" p-id="1796"></path></svg>