<svg t="1591959855908" class="icon" viewBox="0 0 1024 1024" version="1.1" xmlns="http://www.w3.org/2000/svg" p-id="12130" width="200" height="200"><path d="M337.92 249.173h348.16c17.067-3.413 75.093-68.266 88.747-136.533 13.653-64.853-27.307-85.333-126.294-85.333s-78.506 92.16-98.986 92.16c-10.24 0-20.48-71.68-68.267-98.987C450.56 0 402.773 54.613 361.813 54.613c-51.2 0-116.053-6.826-116.053 64.854 3.413 54.613 75.093 129.706 92.16 129.706z m-13.653 10.24c-13.654 0-23.894 10.24-23.894 20.48s10.24 20.48 23.894 20.48H706.56c13.653 0 23.893-10.24 23.893-20.48s-10.24-20.48-23.893-20.48H324.267z m402.773 71.68H307.2C170.667 406.187 54.613 552.96 54.613 747.52c0 215.04 215.04 262.827 460.8 262.827s450.56-51.2 450.56-266.24C969.387 566.613 870.4 409.6 727.04 331.093zM604.16 604.16c17.067 0 30.72 13.653 30.72 27.307s-13.653 27.306-30.72 27.306h-61.44v27.307h61.44c17.067 0 30.72 13.653 30.72 27.307s-13.653 27.306-30.72 27.306h-61.44v58.027c0 13.653-13.653 27.307-30.72 27.307s-30.72-13.654-30.72-27.307v-58.027h-61.44c-17.067 0-30.72-13.653-30.72-27.306s13.653-27.307 30.72-27.307h58.027v-27.307h-61.44c-17.067 0-30.72-13.653-30.72-27.306s13.653-27.307 30.72-27.307h61.44v-17.067L392.533 512c-13.653-10.24-13.653-27.307 0-37.547 10.24-10.24 30.72-10.24 44.374 0l78.506 68.267 78.507-68.267c13.653-10.24 30.72-10.24 44.373 0 10.24 10.24 10.24 27.307 0 37.547l-92.16 78.507v13.653h58.027z" p-id="12131"></path></svg>
