<svg t="1591959589759" class="icon" viewBox="0 0 1170 1024" version="1.1" xmlns="http://www.w3.org/2000/svg" p-id="2989" width="200" height="200"><path d="M1138.907429 760.539429c-14.262857-94.793143-194.852571-135.899429-250.294858-178.834286-5.339429-5.339429-8.923429-19.675429-8.923428-28.525714 0-23.332571 5.339429-32.182857 5.339428-32.182858s100.132571-60.854857 94.793143-216.429714c-5.412571-66.121143-42.934857-184.100571-169.910857-184.100571h-8.923428a169.691429 169.691429 0 0 0-71.533715 14.262857c28.598857 89.380571 60.781714 259.291429-75.044571 366.518857-51.931429 80.457143 128.731429 126.976 100.132571 112.64 160.914286 75.117714 209.188571 126.976 218.112 187.757714 8.923429 46.518857 14.262857 80.457143 14.262857 80.457143s123.392-19.675429 155.574858-42.934857c1.755429-26.770286 5.339429-55.369143-3.584-78.628571zM556.032 581.705143c-8.923429-5.339429-14.262857-28.525714-14.262857-32.182857 0-28.525714 8.923429-37.522286 8.923428-37.522286s117.979429-66.121143 117.979429-268.214857C665.088 161.645714 616.813714 11.410286 455.899429 11.410286h-8.923429c-166.253714 0-209.188571 146.578286-212.772571 230.619428 0 193.097143 118.052571 268.214857 118.052571 268.214857s14.262857 19.602286 14.262857 46.445715c0 5.339429-8.923429 19.675429-19.675428 28.598857-66.121143 51.931429-307.492571 109.056-325.412572 221.696C7.168 853.577143-64.365714 934.034286 177.005714 962.56c66.121143 8.923429 155.574857 14.336 275.309715 14.336 554.276571 0 439.881143-109.129143 425.545142-169.910857-8.923429-117.979429-255.634286-173.348571-321.828571-225.28z" p-id="2990"></path></svg>
