<svg t="1591959795651" class="icon" viewBox="0 0 1024 1024" version="1.1" xmlns="http://www.w3.org/2000/svg" p-id="11389" width="200" height="200"><path d="M879.676289 95.831685h-157.568069a74.094924 74.094924 0 0 0-71.977262-55.850445h-78.074269a66.112965 66.112965 0 0 0-121.451448 0h-79.354174a74.281093 74.281093 0 0 0-71.977262 55.850445H141.705736A71.744551 71.744551 0 0 0 69.844829 168.553619v782.720723A72.489224 72.489224 0 0 0 141.822091 1023.996277h736.667376a74.886139 74.886139 0 0 0 75.607541-72.721935V168.553619A72.931373 72.931373 0 0 0 879.676289 95.831685zM512.506152 130.994195a58.177547 58.177547 0 1 1-59.550538 58.177547 58.875678 58.875678 0 0 1 59.550538-58.177547zM739.584755 733.10854a27.250363 27.250363 0 0 1-27.320176 26.691858H312.980435A27.250363 27.250363 0 0 1 285.660259 733.10854v-24.20186a27.250363 27.250363 0 0 1 27.320176-26.691859h399.284144a27.250363 27.250363 0 0 1 27.320176 26.691859z m0-246.021213a27.250363 27.250363 0 0 1-27.320176 26.691859H312.980435a27.250363 27.250363 0 0 1-27.320176-26.691859v-24.178589a27.250363 27.250363 0 0 1 27.320176-26.691858h399.284144a27.250363 27.250363 0 0 1 27.320176 26.691858z" p-id="11390"></path></svg>
