<?xml version="1.0" encoding="utf-8"?>
<!-- Generator: Adobe Illustrator 22.0.0, SVG Export Plug-In . SVG Version: 6.00 Build 0)  -->
<svg version="1.1" id="图层_1" xmlns="http://www.w3.org/2000/svg" xmlns:xlink="http://www.w3.org/1999/xlink" x="0px" y="0px"
	 viewBox="0 0 1000 1000" style="enable-background:new 0 0 1000 1000;" xml:space="preserve">
<style type="text/css">
	.st0{clip-path:url(#SVGID_2_);}
</style>
<g>
	<g>
		<defs>
			<rect id="SVGID_1_" x="148" y="90" width="703.9" height="820.7"/>
		</defs>
		<clipPath id="SVGID_2_">
			<use xlink:href="#SVGID_1_"  style="overflow:visible;"/>
		</clipPath>
		<path class="st0" d="M834.4,401.1L540.8,107.6c-10.2-10.2-27.3-17.1-41-17.1c-13.7,0-30.7,6.8-41,17.1L165.3,401.1
			c-37.5,37.5-10.2,99,41,99h116.1v116c0,30.7,27.3,58,58,58h235.5c30.7,0,58-27.3,58-58v-116H790
			C844.6,500.1,871.9,438.7,834.4,401.1L834.4,401.1z M673.9,442.1h-58v174.1H380.4V442.1H206.3l293.5-293.5l293.5,293.5H673.9z
			 M646.6,735.6H353.1c-17.1,0-30.7,13.7-30.7,30.7c0,17.1,13.7,30.7,30.7,30.7h293.5c17.1,0,30.7-13.7,30.7-30.7
			C673.9,749.3,660.3,735.6,646.6,735.6L646.6,735.6z M646.6,851.7H353.1c-17.1,0-30.7,13.7-30.7,30.7c0,17.1,13.7,27.3,30.7,27.3
			h293.5c17.1,0,30.7-13.7,30.7-30.7C673.9,861.9,660.3,851.7,646.6,851.7L646.6,851.7z M646.6,851.7"/>
	</g>
</g>
</svg>
